<?xml version="1.0" encoding="UTF-8"?>
<svg id="TRAZO" xmlns="http://www.w3.org/2000/svg" viewBox="0 0 800 585.14">
  <defs>
    <style>
      .cls-1, .cls-2, .cls-3 {
        stroke-width: 0px;
      }

      .cls-2 {
        fill: #fb2b6d;
      }

      .cls-3 {
        fill: #59bab3;
      }
    </style>
  </defs>
  <g>
    <polygon class="cls-2" points="750.96 116.71 633.85 232.76 633.62 298.4 786.09 452.24 800 585.14 759.13 584.92 759.12 584.92 520.98 344.62 521.56 185.33 708.54 .01 708.55 0 738.76 .16 750.96 116.71"/>
    <polygon class="cls-2" points="210.41 116.71 327.51 232.76 327.75 298.4 175.28 452.24 161.37 585.14 202.24 584.92 202.24 584.92 440.39 344.62 439.81 185.33 252.82 .01 252.81 0 222.61 .16 210.41 116.71"/>
  </g>
  <g>
    <polygon class="cls-3" points="670.56 116.71 553.46 232.76 553.22 298.4 705.69 452.24 719.61 585.14 678.73 584.92 678.73 584.92 440.58 344.62 441.16 185.33 628.15 .01 628.16 0 658.36 .16 670.56 116.71"/>
    <polygon class="cls-3" points="130.01 116.71 247.12 232.76 247.36 298.4 94.89 452.24 80.97 585.14 121.85 584.92 121.85 584.92 360 344.62 359.42 185.33 172.43 .01 172.42 0 142.21 .16 130.01 116.71"/>
  </g>
  <g>
    <polygon class="cls-1" points="589.59 116.71 472.49 232.76 472.25 298.4 624.72 452.24 638.63 585.14 597.76 584.92 597.76 584.92 359.61 344.62 359.42 185.33 547.18 .01 547.19 0 577.39 .16 589.59 116.71"/>
    <polygon class="cls-1" points="49.04 116.71 166.15 232.76 166.38 298.4 13.91 452.24 0 585.14 40.87 584.92 40.88 584.92 279.02 344.62 278.44 185.33 91.46 .01 91.45 0 61.24 .16 49.04 116.71"/>
  </g>
</svg>